<svg width="60" height="60" viewBox="0 0 60 60" fill="none" xmlns="http://www.w3.org/2000/svg">
<g clip-path="url(#clip0_390_505)">
<path d="M39.3242 36.8982V54.1868V54.9672H38.5437H5.78065H5.00537V54.1868V5.81487V5.03442H5.78065H29.1836H29.5092L29.7366 5.26184L39.0968 14.622L39.3242 14.8494V15.175V23.0466L41.9911 18.5087L42.3839 17.8419L47.5472 9.05551C48.2967 7.78406 49.5785 7.45328 50.8189 7.7117H50.8241C51.2686 7.80474 51.7079 7.98046 52.111 8.21822C52.5142 8.4508 52.8811 8.75057 53.1757 9.09169H53.1809C53.858 9.87213 54.2094 10.8697 53.9097 11.9034C54.6694 12.4874 55.6566 13.733 54.4058 15.8572L49.2683 24.6023C49.1598 24.7884 48.9841 24.9124 48.7928 24.959L47.723 25.2381C47.3095 25.3466 46.8805 25.0985 46.7771 24.6799C46.6686 24.2664 46.9167 23.8374 47.3353 23.734L48.0951 23.5376L53.0672 15.0716C53.553 14.2395 53.4083 13.6916 53.1602 13.3609L48.4362 21.3979L39.3242 36.9034V36.8982ZM30.1708 42.3303L29.2146 47.1835L32.9876 43.9894L30.1708 42.3354V42.3303ZM27.2557 49.0648L28.8528 40.9554H28.858C28.8735 40.8728 28.9045 40.7901 28.951 40.7125L28.9613 40.6919L37.7633 25.7084V15.9606H29.1836C28.7546 15.9606 28.4031 15.6092 28.4031 15.1802V15.1595V6.60048H6.55592V53.4115H37.7633V39.56L35.0291 44.2116L35.0188 44.2271L35.0085 44.2426C34.962 44.3253 34.8999 44.4028 34.8276 44.47L28.5375 49.7987C28.3618 49.9538 28.1189 50.0313 27.8708 49.9848C27.447 49.9021 27.173 49.4938 27.2557 49.07V49.0648ZM30.6824 40.8262L34.0523 42.8058L46.7048 21.2738L43.3349 19.2943L30.6876 40.8262H30.6824ZM44.1205 17.9557L47.4904 19.9352L52.2299 11.8672L52.2402 11.8517L52.2764 11.7896L52.2816 11.7845C52.602 11.2056 52.4211 10.5854 52.0076 10.1151C51.8164 9.89798 51.5838 9.70674 51.3254 9.55686C51.0721 9.40697 50.7879 9.29326 50.5036 9.23641C49.8782 9.1072 49.2373 9.25191 48.891 9.84112L44.1205 17.9608V17.9557ZM22.1648 51.065H32.3364V52.6259H22.1648V51.065ZM9.68286 27.6621H26.4288V29.223H9.68286V27.6621ZM9.68286 24.5403H34.6467V26.1012H9.68286V24.5403ZM9.68286 21.4185H34.6467V22.9794H9.68286V21.4185ZM9.68286 18.2968H34.6467V19.8577H9.68286V18.2968ZM36.6624 14.3946L29.964 7.6962V14.3946H36.6624Z" fill="#22C341"/>
</g>
<defs>
<clipPath id="clip0_390_505">
<rect width="50" height="50" fill="#22C341" transform="translate(5 5)"/>
</clipPath>
</defs>
</svg>
