<svg width="57" height="57" viewBox="0 0 57 57" fill="none" xmlns="http://www.w3.org/2000/svg">
<path d="M42.9727 26.5146V12.9838C42.9727 12.8903 42.937 12.8013 42.8725 12.7345L34.6898 4.3559C34.623 4.28687 34.5318 4.24902 34.436 4.24902H15.793C15.3098 4.24902 14.918 4.6409 14.918 5.12406V22.9521" stroke="#22C341" stroke-width="1.66797" stroke-miterlimit="10" stroke-linecap="round"/>
<path d="M36.3294 12.71H42.9534C43.0024 12.71 43.0269 12.6499 42.9935 12.6143L34.606 4.22679C34.5704 4.19117 34.5103 4.21566 34.5103 4.26687V10.8909C34.5125 11.8973 35.3252 12.71 36.3294 12.71Z" stroke="#22C341" stroke-width="1.66797" stroke-miterlimit="10" stroke-linecap="round"/>
<path d="M18.2578 11.8193H28.5" stroke="#22C341" stroke-width="1.66797" stroke-miterlimit="10" stroke-linecap="round"/>
<path d="M18.2578 17.1631H38.9648" stroke="#22C341" stroke-width="1.66797" stroke-miterlimit="10" stroke-linecap="round"/>
<path d="M18.2578 21.6162H33.8438" stroke="#22C341" stroke-width="1.66797" stroke-miterlimit="10" stroke-linecap="round"/>
<path d="M47.3434 52.7881H9.6566C8.87285 52.7881 8.23828 52.1535 8.23828 51.3698V27.7103C8.23828 26.9266 8.87285 26.292 9.6566 26.292H25.1178C25.4496 26.292 25.7702 26.4189 26.0107 26.6482L29.1591 29.6318H47.3412C48.1249 29.6318 48.7595 30.2664 48.7595 31.0502V51.3698C48.7617 52.1535 48.1271 52.7881 47.3434 52.7881Z" stroke="#22C341" stroke-width="1.66797" stroke-miterlimit="10" stroke-linecap="round"/>
<path d="M12.0234 44.7725H22.043" stroke="#22C341" stroke-width="1.66797" stroke-miterlimit="10" stroke-linecap="round"/>
<path d="M12.0234 48.335H16.9219" stroke="#22C341" stroke-width="1.66797" stroke-miterlimit="10" stroke-linecap="round"/>
</svg>
