<svg width="78" height="78" viewBox="0 0 78 78" fill="none" xmlns="http://www.w3.org/2000/svg">
<path d="M74.6383 29.2994C74.5196 29.1021 74.3274 28.96 74.1039 28.9043C73.8805 28.8487 73.644 28.884 73.4466 29.0026L66.5686 33.1337C66.3827 33.2464 66.2458 33.4246 66.1849 33.6333L64.7195 38.6434C64.6674 38.6202 64.6153 38.5956 64.5617 38.5739L44.1724 27.8978C44.0195 27.8183 43.8465 27.786 43.6753 27.8051C43.5041 27.8242 43.3425 27.8937 43.2109 28.0049C43.1631 28.0454 38.4788 32.0173 34.4765 35.1754C31.931 37.1823 29.5374 36.2904 28.4123 35.6431L35.2845 26.2007C36.3754 24.7089 37.8318 23.5229 39.5137 22.7568C41.1955 21.9907 43.0462 21.6702 44.8877 21.8263L55.4581 22.9673C55.5738 22.9798 55.6909 22.969 55.8023 22.9354C55.9137 22.9018 56.0173 22.8462 56.1068 22.7718L62.4273 17.5011C62.5884 17.3493 62.6854 17.1418 62.6987 16.921C62.712 16.7001 62.6405 16.4824 62.4988 16.3125C62.3571 16.1425 62.1559 16.033 61.9362 16.0063C61.7165 15.9797 61.495 16.0378 61.3167 16.1689L55.2785 21.2022L45.0528 20.1003C42.5728 19.8892 40.0863 20.4226 37.9112 21.6322L23.9163 21.7915L17.8607 16.5874C17.6846 16.4511 17.4628 16.3876 17.2412 16.4101C17.0196 16.4326 16.8151 16.5393 16.67 16.7083C16.5248 16.8772 16.4501 17.0955 16.4612 17.3179C16.4724 17.5404 16.5685 17.75 16.7298 17.9036L23.033 23.3206C23.1905 23.456 23.3914 23.5305 23.5992 23.5306H23.6093L35.4655 23.3945C34.8782 23.9368 34.3448 24.5347 33.8727 25.1799L26.4763 35.3463C26.3485 35.5239 26.2924 35.7432 26.3193 35.9604C26.3461 36.1775 26.4539 36.3766 26.6211 36.5177C28.1097 37.7833 31.8933 39.4137 35.5466 36.538C38.8539 33.933 42.6187 30.7778 43.8871 29.7049L63.8391 40.1421C64.1387 40.2625 64.4199 40.4243 64.6746 40.6228L64.6949 40.6387C65.4203 41.2108 65.897 42.0407 66.0256 42.9555C66.1878 44.1139 65.7766 45.1681 64.8933 45.8515C64.4956 46.157 64.0336 46.3679 63.5423 46.4684C60.4523 47.1055 52.843 43.972 50.1685 42.7036C49.96 42.6049 49.7208 42.5931 49.5036 42.6707C49.2863 42.7484 49.1088 42.9092 49.0101 43.1177C48.9114 43.3262 48.8996 43.5654 48.9773 43.7827C49.055 43.9999 49.2157 44.1774 49.4243 44.2761C49.7515 44.431 55.9403 47.3328 60.6304 48.0959C60.5522 48.5216 60.1004 50.6241 58.6509 51.6204C57.8893 52.1474 56.9669 52.2821 55.8375 52.0302C50.9316 50.9413 45.7695 49.1052 45.7174 49.0878C45.5066 49.0322 45.2827 49.0578 45.0899 49.1595C44.8972 49.2613 44.7497 49.4318 44.6768 49.6372C44.6039 49.8426 44.6109 50.068 44.6963 50.2685C44.7818 50.469 44.9395 50.6301 45.1382 50.7197C45.1889 50.7385 49.9166 52.4211 54.6863 53.5462C54.4199 54.7394 53.4497 56.9389 49.9209 56.8433C44.7081 56.6696 41.7861 54.6148 41.7571 54.5946C41.5705 54.4833 41.349 54.4459 41.1363 54.4898C40.9235 54.5337 40.7349 54.6558 40.6077 54.8319C40.4805 55.008 40.4239 55.2254 40.449 55.4412C40.4741 55.657 40.5792 55.8555 40.7435 55.9977C40.8449 56.073 42.7345 57.4138 46.175 58.1364C44.5517 59.483 41.4646 61.3336 38.1139 59.6322C36.7282 58.927 35.8941 58.4998 35.3946 58.2392C35.3889 58.2348 35.3836 58.2299 35.3787 58.2247C36.3472 57.6008 37.2535 56.8851 38.085 56.0875C38.1633 56.01 38.2258 55.918 38.2689 55.8167C38.2993 55.7428 39.0233 54.0081 38.1675 52.3067C37.5955 51.1671 36.4849 50.3534 34.8747 49.8741C34.4954 48.7157 33.3254 45.9558 30.6683 45.4432C30.5662 44.5696 30.2295 43.74 29.6938 43.0424C28.6976 41.7392 27.0686 40.8921 24.8546 40.5026C24.6374 38.4754 21.9586 36.5742 20.3658 35.7532C17.5986 34.3327 11.2332 36.9666 8.52545 38.2148L4.72879 34.2516C4.65239 34.1605 4.5581 34.0861 4.45177 34.0329C4.34543 33.9797 4.22932 33.9489 4.1106 33.9424C3.99189 33.9359 3.8731 33.9538 3.7616 33.9951C3.6501 34.0364 3.54826 34.1001 3.46237 34.1823C3.37649 34.2645 3.30839 34.3635 3.26229 34.4731C3.2162 34.5827 3.19309 34.7005 3.19439 34.8194C3.19569 34.9383 3.22138 35.0557 3.26987 35.1642C3.31835 35.2728 3.3886 35.3702 3.47627 35.4505L6.99781 39.1357C5.89298 40.0856 5.21677 41.4815 5.83941 42.9671C6.30132 44.069 8.03747 46.0774 9.96911 46.8202C10.4572 46.9986 10.9681 47.1069 11.4866 47.1417C11.9949 48.9213 13.4197 51.5769 16.0609 52.3125C16.5546 54.027 18.1793 56.4842 21.766 56.7579C22.2453 58.4564 23.8859 60.7471 27.7853 60.7471C27.878 60.7471 27.9736 60.7471 28.0677 60.7471C30.1528 60.6892 32.0772 60.0231 33.6729 59.2151C33.7395 59.2644 33.8177 59.3151 33.9031 59.3701L33.8944 59.3903L34.0392 59.4555C34.6445 59.8204 35.6668 60.3402 37.3248 61.183C38.4122 61.7446 39.6181 62.038 40.842 62.0387C44.0594 62.0387 46.8874 60.0419 48.3716 58.4752C48.8523 58.5244 49.3461 58.5635 49.8688 58.5809C49.9789 58.5809 50.0889 58.5809 50.1961 58.5809C54.3272 58.5809 55.9663 55.8891 56.4022 53.8633C56.5644 53.8764 56.7265 53.8865 56.8844 53.8865C57.87 53.8992 58.8353 53.6058 59.6472 53.0467C61.8539 51.5219 62.3347 48.4753 62.3636 48.2769C62.4563 48.2769 62.5504 48.2842 62.6402 48.2842C63.062 48.2887 63.4832 48.2499 63.8971 48.1683C64.6457 48.0157 65.3496 47.6937 65.9547 47.2271C66.6278 46.7037 67.1487 46.0097 67.4631 45.217C67.7776 44.4244 67.8742 43.5621 67.743 42.7195C67.5794 41.5684 67.0469 40.5014 66.2254 39.6787L67.7531 34.4514L74.3415 30.4955C74.4398 30.4367 74.5255 30.359 74.5936 30.267C74.6618 30.1749 74.7111 30.0703 74.7387 29.9592C74.7663 29.848 74.7716 29.7325 74.7544 29.6193C74.7372 29.5061 74.6977 29.3973 74.6383 29.2994ZM7.43221 42.2967C7.01808 41.3034 8.05775 40.3998 8.68908 40.0479C12.0832 38.4218 16.0739 37.0694 18.3183 37.0694C18.7453 37.0493 19.1712 37.1271 19.5636 37.2967C21.6806 38.3827 23.1199 39.9582 23.1358 40.7488C23.1358 40.8443 23.1358 41.0384 22.7289 41.2744L22.2482 41.5495C19.9314 42.8773 13.7672 46.4032 10.5802 45.1927C9.15823 44.6482 7.73629 43.0091 7.43221 42.2967ZM13.2807 47.0751C16.8935 46.6045 21.042 44.2341 23.1097 43.0496L23.5818 42.7803C23.8689 42.6214 24.1262 42.4137 24.342 42.1664C28.3558 42.7977 28.9119 44.8727 28.9626 45.7429C26.4821 47.3473 20.554 50.7704 17.506 50.7704C14.9372 50.7747 13.7397 48.358 13.2865 47.0794L13.2807 47.0751ZM17.9795 52.4848C22.0628 52.1677 28.6701 47.996 30.0486 47.1055C31.8875 47.2851 32.8186 49.2775 33.1647 50.2506C31.5965 51.409 26.4083 55.0217 22.4654 55.0449H22.4205C19.6968 55.0492 18.4949 53.5549 17.9852 52.4892L17.9795 52.4848ZM28.0083 59.0008C25.0573 59.1051 23.9669 57.6846 23.5644 56.7C27.9866 56.1338 32.9938 52.5529 34.3578 51.5219C35.493 51.8549 36.2518 52.3719 36.6051 53.064C36.9961 53.8271 36.8151 54.6568 36.7166 54.9841C35.9781 55.6791 32.2886 58.8908 28.0141 59.0081L28.0083 59.0008Z" fill="#22C341"/>
</svg>
