<svg width="78" height="78" viewBox="0 0 78 78" fill="none" xmlns="http://www.w3.org/2000/svg">
<path d="M44.665 20.5163C47.5972 18.8866 50.9753 17.9595 54.5683 17.9595C65.851 17.9595 75.0004 27.1056 75.0004 38.3915C75.0004 49.6775 65.8542 58.8236 54.5683 58.8236C50.9753 58.8236 47.5972 57.8965 44.665 56.2668" stroke="#22C341" stroke-width="1.8" stroke-miterlimit="10" stroke-linecap="round"/>
<path d="M51.763 43.5306V43.7456C51.763 45.7762 53.4087 47.4252 55.4426 47.4252H56.4756C58.5031 47.4252 60.1456 45.7827 60.1456 43.7552V43.7456C60.1456 42.6388 59.6227 41.5962 58.7373 40.9321L53.1681 36.7616C52.2827 36.0976 51.7598 35.0549 51.7598 33.945V34.3395C51.7598 32.3089 53.3991 30.6599 55.4234 30.6599H57.0819C59.103 30.6599 60.7455 32.3056 60.7455 34.3395V33.9546" stroke="#22C341" stroke-width="1.8" stroke-miterlimit="10" stroke-linecap="round"/>
<path d="M56.8535 27.6606V29.4572" stroke="#22C341" stroke-width="1.8" stroke-miterlimit="10" stroke-linecap="round"/>
<path d="M56.8535 48.6189V50.1171" stroke="#22C341" stroke-width="1.8" stroke-miterlimit="10" stroke-linecap="round"/>
<path d="M44.6632 38.0016C44.6632 49.5025 35.3439 58.8219 23.843 58.8219C12.3421 58.8219 3.01953 49.5025 3.01953 38.0016C3.01953 26.504 12.3421 17.1814 23.843 17.1814C35.3439 17.1814 44.6632 26.504 44.6632 38.0016Z" stroke="#22C341" stroke-width="1.8" stroke-miterlimit="10" stroke-linecap="round"/>
<path d="M31.157 18.5085C34.3073 23.6126 36.2321 30.4425 36.2321 37.9493C36.2321 45.5235 34.2688 52.408 31.064 57.5313" stroke="#22C341" stroke-width="1.8" stroke-miterlimit="10" stroke-linecap="round"/>
<path d="M17.0627 18.5085C13.9124 23.6126 11.9844 30.4425 11.9844 37.9493C11.9844 45.5235 13.9477 52.408 17.1558 57.5313" stroke="#22C341" stroke-width="1.8" stroke-miterlimit="10" stroke-linecap="round"/>
<path d="M23.8501 17.2356V58.9403" stroke="#22C341" stroke-width="1.8" stroke-miterlimit="10" stroke-linecap="round"/>
<path d="M2.99756 38.0881H44.7022" stroke="#22C341" stroke-width="1.8" stroke-miterlimit="10" stroke-linecap="round"/>
<path d="M6.20557 28.1431H42.1357" stroke="#22C341" stroke-width="1.8" stroke-miterlimit="10" stroke-linecap="round"/>
<path d="M5.56396 48.033H41.8149" stroke="#22C341" stroke-width="1.8" stroke-miterlimit="10" stroke-linecap="round"/>
</svg>
