<svg width="18" height="18" viewBox="0 0 18 18" fill="none" xmlns="http://www.w3.org/2000/svg">
<path d="M16.3345 9.11268C16.1485 8.30456 15.4875 7.70844 14.6919 7.61971C12.8082 7.40929 10.9008 7.4083 9.00267 7.40929C7.10375 7.4083 5.19669 7.40929 3.31247 7.61971C2.51725 7.70864 1.85662 8.30476 1.67082 9.11268C1.40601 10.2634 1.40283 11.5196 1.40283 12.7045C1.40283 13.8893 1.40283 15.1453 1.66764 16.296C1.85344 17.104 2.51407 17.7001 3.30969 17.789C5.19352 17.9996 7.10057 18.0004 8.99929 17.9996C10.8982 18.0006 12.8049 17.9996 14.6893 17.789C15.4845 17.7001 16.1455 17.104 16.3313 16.296C16.596 15.1453 16.5973 13.8893 16.5973 12.7045C16.5971 11.5194 16.5991 10.2634 16.3345 9.11268ZM5.73683 10.0046H4.6371V15.8482H3.61559V10.0046H2.53591V9.04737H5.73683V10.0046ZM8.51136 15.8484H7.59247V15.2956C7.22742 15.714 6.88083 15.9181 6.54317 15.9181C6.24719 15.9181 6.04352 15.7982 5.95162 15.5415C5.90159 15.3883 5.87063 15.1457 5.87063 14.788V10.7809H6.78872V14.5119C6.78872 14.727 6.78872 14.8388 6.79706 14.869C6.81909 15.0115 6.88877 15.0838 7.01184 15.0838C7.19606 15.0838 7.38861 14.9418 7.59228 14.6538V10.7809H8.51116L8.51136 15.8484ZM11.9997 14.3275C11.9997 14.7961 11.9682 15.1338 11.9068 15.3486C11.7841 15.7255 11.5386 15.9181 11.1733 15.9181C10.8466 15.9181 10.5314 15.7367 10.2243 15.3575V15.8486H9.30618V9.04737H10.2243V11.2685C10.5208 10.9034 10.8357 10.7188 11.1733 10.7188C11.5386 10.7188 11.7843 10.9112 11.9068 11.2905C11.9686 11.4944 11.9997 11.8294 11.9997 12.3092V14.3275ZM15.4651 13.482H13.6287V14.3803C13.6287 14.8493 13.7821 15.0836 14.0977 15.0836C14.3238 15.0836 14.4555 14.9607 14.5079 14.7153C14.5164 14.6655 14.5285 14.4614 14.5285 14.0932H15.4653V14.2272C15.4653 14.5232 15.4539 14.727 15.4456 14.8188C15.4148 15.022 15.3426 15.2064 15.2312 15.3688C14.9769 15.7369 14.6002 15.9183 14.1206 15.9183C13.6402 15.9183 13.2745 15.7454 13.0091 15.3994C12.8144 15.1457 12.7143 14.7463 12.7143 14.2078V12.4329C12.7143 11.8912 12.8031 11.495 12.9982 11.2389C13.2634 10.8921 13.6289 10.7194 14.0979 10.7194C14.5587 10.7194 14.9239 10.8921 15.1812 11.2389C15.3735 11.495 15.4655 11.8912 15.4655 12.4329V13.482H15.4651Z" fill="#6B7681"/>
<path d="M14.0896 11.5459C13.7827 11.5459 13.6289 11.7803 13.6289 12.2488V12.7177H14.547V12.2488C14.5468 11.7803 14.3934 11.5459 14.0896 11.5459Z" fill="#6B7681"/>
<path d="M10.6821 11.5459C10.5308 11.5459 10.3776 11.6174 10.2241 11.7692V14.8578C10.3774 15.0114 10.5308 15.0841 10.6821 15.0841C10.9469 15.0841 11.0815 14.8578 11.0815 14.4002V12.2373C11.0815 11.7803 10.9469 11.5459 10.6821 11.5459Z" fill="#6B7681"/>
<path d="M11.195 6.94252C11.5334 6.94252 11.8856 6.73687 12.255 6.31366V6.87225H13.183V1.75098H12.255V5.66513C12.0493 5.95575 11.8544 6.09947 11.6688 6.09947C11.5445 6.09947 11.4715 6.02602 11.4512 5.8821C11.4399 5.85173 11.4399 5.73878 11.4399 5.52141V1.75098H10.5149V5.80052C10.5149 6.16219 10.5459 6.40695 10.5971 6.56199C10.6904 6.82144 10.8962 6.94252 11.195 6.94252Z" fill="#6B7681"/>
<path d="M4.73454 4.08884V6.87211H5.7636V4.08884L7.00149 0H5.96091L5.25879 2.6987L4.52829 0H3.44543C3.6624 0.637008 3.8881 1.27719 4.10507 1.9148C4.43519 2.87319 4.64124 3.59575 4.73454 4.08884Z" fill="#6B7681"/>
<path d="M8.38065 6.94245C8.84556 6.94245 9.20684 6.76756 9.46311 6.41819C9.65785 6.16192 9.75115 5.75816 9.75115 5.21385V3.42054C9.75115 2.87306 9.65805 2.47287 9.46311 2.21421C9.20684 1.86385 8.84576 1.68896 8.38065 1.68896C7.91813 1.68896 7.55705 1.86385 7.30018 2.21421C7.10306 2.47287 7.00977 2.87306 7.00977 3.42054V5.21385C7.00977 5.75816 7.10306 6.16192 7.30018 6.41819C7.55685 6.76756 7.91813 6.94245 8.38065 6.94245ZM7.93779 3.23454C7.93779 2.7607 8.0815 2.52448 8.38065 2.52448C8.6798 2.52448 8.82313 2.7605 8.82313 3.23454V5.38873C8.82313 5.86257 8.6798 6.09959 8.38065 6.09959C8.0815 6.09959 7.93779 5.86257 7.93779 5.38873V3.23454Z" fill="#6B7681"/>
</svg>
