<svg width="23" height="23" viewBox="0 0 23 23" fill="none" xmlns="http://www.w3.org/2000/svg">
<path d="M6.59469 8.02588H2.74219V19.614H6.59469V8.02588Z" fill="#6B7681"/>
<path d="M4.6949 2.74902C3.37681 2.74902 2.51562 3.61558 2.51562 4.75136C2.51562 5.86326 3.35063 6.75369 4.64388 6.75369H4.6688C6.01209 6.75369 6.84821 5.86326 6.84821 4.75136C6.82329 3.61558 6.01216 2.74902 4.6949 2.74902Z" fill="#6B7681"/>
<path d="M15.9167 7.75391C13.8732 7.75391 12.9578 8.87775 12.4453 9.66711V8.0264H8.59375C8.64484 9.11339 8.59375 19.6146 8.59375 19.6146H12.4452V13.1429C12.4452 12.7965 12.4701 12.4502 12.5722 12.2026C12.8502 11.5109 13.4844 10.7942 14.5485 10.7942C15.9416 10.7942 16.4997 11.8573 16.4997 13.4144V19.6146H20.3514V12.9692C20.3514 9.40976 18.451 7.75391 15.9167 7.75391Z" fill="#6B7681"/>
</svg>
