<svg width="25" height="38" viewBox="0 0 25 38" fill="none" xmlns="http://www.w3.org/2000/svg">
<g clip-path="url(#clip0_390:669)">
<path d="M12.5001 40.5448C24.1867 40.5448 33.6605 30.8988 33.6605 19C33.6605 7.10091 24.1867 -2.54492 12.5001 -2.54492C0.813745 -2.54492 -8.66016 7.10091 -8.66016 19C-8.66016 30.8988 0.813745 40.5448 12.5001 40.5448Z" fill="white"/>
<path d="M9.64851 28.8829L15.8471 28.8701V24.0152C15.8471 22.6983 16.4561 21.4541 18.0855 20.3766C19.7147 19.2995 24.2631 17.1139 24.2631 11.3676C24.2631 5.621 19.4867 1.67118 15.4717 0.833223C11.4572 -0.00473368 7.10755 0.546587 4.02084 3.95569C1.25674 7.00839 0.674316 9.42309 0.674316 14.7506H6.8679V13.5123C6.8679 10.6736 7.19365 7.67691 11.2167 6.85737C13.4125 6.41001 15.4709 7.10439 16.6918 8.30822C18.0885 9.68488 18.0997 12.7869 15.8743 14.3315L12.3832 16.7259C10.3468 18.0427 9.64851 19.5088 9.64851 21.6637V28.8829Z" fill="#F4F4F4"/>
<path d="M9.60791 37.7676V31.3328H15.8917V37.7676H9.60791Z" fill="#F4F4F4"/>
</g>
<defs>
<clipPath id="clip0_390:669">
<rect width="25" height="38" fill="white"/>
</clipPath>
</defs>
</svg>
